<?xml version="1.0" standalone="no"?>
<!DOCTYPE svg PUBLIC "-//W3C//DTD SVG 20010904//EN"
 "http://www.w3.org/TR/2001/REC-SVG-20010904/DTD/svg10.dtd">
<svg version="1.0" xmlns="http://www.w3.org/2000/svg"
 width="360.000000pt" height="360.000000pt" viewBox="0 0 360.000000 360.000000"
 preserveAspectRatio="xMidYMid meet">

<g transform="translate(0.000000,360.000000) scale(0.100000,-0.100000)"
fill="#000000" stroke="none">
<path d="M1622 3380 c3 -8 13 -49 23 -92 l18 -76 -45 -54 c-117 -137 -208
-307 -226 -424 -19 -116 22 -258 103 -354 34 -41 105 -168 105 -188 0 -5 -37
-12 -82 -15 -46 -4 -92 -9 -103 -12 -18 -5 -28 8 -72 102 -109 228 -125 346
-69 510 31 91 67 166 116 243 23 34 39 64 37 66 -9 9 -123 -144 -162 -219 -63
-119 -79 -182 -73 -291 6 -110 36 -204 106 -331 l49 -90 -122 -32 c-190 -49
-323 -110 -403 -186 -48 -45 -62 -78 -62 -141 0 -63 -3 -60 156 -140 179 -90
398 -147 642 -167 301 -25 641 37 899 164 46 22 81 42 80 43 -2 2 -37 -10 -78
-27 -324 -133 -912 -177 -1269 -95 -118 27 -233 68 -268 95 l-24 17 26 31 c15
17 46 43 71 57 54 32 232 92 300 101 l50 7 -34 -35 c-24 -25 -48 -39 -85 -47
-63 -15 -254 -88 -261 -101 -9 -13 -1 -11 61 16 67 30 216 76 222 70 3 -2 -1
-11 -8 -20 -19 -23 1 -18 27 7 18 17 50 27 121 39 53 9 98 15 100 13 2 -1 -2
-13 -8 -26 -12 -22 -11 -21 16 4 24 22 42 28 99 33 39 3 82 8 98 10 24 4 26 3
17 -15 -16 -30 -12 -33 13 -6 21 23 30 25 161 32 134 6 139 6 131 -12 -4 -11
-10 -27 -12 -36 -5 -16 -20 -18 -140 -18 -199 0 -401 -27 -569 -76 -81 -23
-62 -25 36 -3 157 35 344 60 504 66 146 6 159 5 153 -10 -4 -10 -3 -17 2 -17
4 0 16 25 26 55 11 30 23 55 27 55 4 0 8 9 8 20 0 30 19 33 122 20 173 -22
315 -67 419 -132 l37 -22 65 49 c94 72 97 117 13 200 -80 80 -247 141 -457
167 l-97 12 6 81 c6 101 -11 201 -45 269 -31 62 -112 185 -163 246 -104 126
-223 344 -285 525 -16 44 -33 85 -38 90 -7 7 -8 5 -5 -5z m73 -255 c49 -125
124 -245 247 -398 100 -125 161 -223 179 -287 13 -47 19 -243 8 -255 -4 -3
-62 -3 -129 1 l-121 7 6 52 c12 90 -25 197 -115 336 -22 34 -54 105 -72 158
-28 86 -31 109 -32 221 -1 69 2 141 6 160 l7 35 -17 -35 c-13 -27 -17 -64 -16
-165 0 -121 2 -137 34 -229 20 -59 53 -128 83 -173 74 -114 99 -176 104 -263
2 -41 0 -80 -4 -86 -4 -6 -38 -14 -75 -17 l-68 -6 0 78 c0 86 -10 125 -65 251
-68 156 -77 184 -85 268 -7 76 0 208 14 264 4 14 0 12 -8 -7 -22 -46 -39 -190
-32 -265 8 -85 22 -129 90 -276 59 -126 81 -212 70 -276 -5 -36 -7 -38 -45
-38 -34 0 -39 3 -45 28 -9 35 -70 145 -111 200 -43 56 -83 185 -83 265 0 77
16 131 76 254 42 87 162 279 169 271 1 -2 15 -34 30 -73z m65 -1210 c0 -2 -5
-15 -11 -28 -10 -22 -18 -25 -107 -30 -53 -3 -98 -4 -100 -2 -2 2 6 18 18 34
21 31 22 31 111 31 49 0 89 -2 89 -5z m274 -17 c-3 -13 -7 -24 -8 -25 -2 -3
-276 -8 -276 -5 0 1 7 14 16 27 16 24 19 25 146 25 l129 0 -7 -22z m-484 7 c0
-25 -28 -55 -54 -59 -17 -3 -60 -10 -95 -15 -36 -6 -67 -9 -69 -6 -2 2 10 18
26 36 23 25 42 35 79 40 61 8 113 10 113 4z"/>
<path d="M2840 1835 c-67 -19 -89 -31 -165 -90 -137 -106 -383 -210 -601 -254
-409 -83 -868 -26 -1223 153 l-72 37 5 -33 c6 -34 33 -242 61 -468 34 -276 44
-313 111 -407 l33 -47 -53 -48 c-65 -57 -90 -106 -83 -159 15 -111 136 -194
374 -255 297 -76 762 -77 1119 -4 548 113 747 364 416 525 -31 15 -58 28 -59
29 -2 1 20 27 49 57 124 132 238 291 324 454 134 251 112 452 -54 511 -46 16
-123 16 -182 -1z m177 -205 c12 -10 24 -32 27 -47 12 -51 -8 -91 -182 -383
-71 -117 -232 -309 -232 -275 0 8 20 125 45 261 25 135 48 273 52 305 7 68 16
78 124 129 76 36 135 39 166 10z m-343 -920 c73 -49 76 -94 13 -155 -76 -73
-275 -141 -527 -180 -140 -22 -546 -32 -677 -16 -206 26 -374 79 -428 137 -33
36 -33 83 0 114 l25 23 42 -30 c200 -142 454 -210 753 -200 156 5 250 24 379
80 48 20 306 206 335 241 19 23 36 20 85 -14z"/>
<path d="M2330 1753 c-155 -80 -492 -133 -995 -156 -33 -2 17 -4 110 -5 260
-3 512 28 724 89 125 36 194 64 217 90 9 10 15 18 13 17 -2 0 -33 -16 -69 -35z"/>
</g>
</svg>
